<mxfile host="65bd71144e">
    <diagram id="6DxBcArGVOEiOsR8WaLS" name="Normal Async Request">
        <mxGraphModel dx="1540" dy="632" grid="1" gridSize="10" guides="1" tooltips="1" connect="1" arrows="1" fold="1" page="1" pageScale="1" pageWidth="850" pageHeight="1100" math="0" shadow="0">
            <root>
                <mxCell id="0"/>
                <mxCell id="1" parent="0"/>
                <mxCell id="4" value=":Async Operation" style="shape=umlLifeline;perimeter=lifelinePerimeter;whiteSpace=wrap;html=1;container=1;collapsible=0;recursiveResize=0;outlineConnect=0;" vertex="1" parent="1">
                    <mxGeometry x="370" y="40" width="100" height="290" as="geometry"/>
                </mxCell>
                <mxCell id="8" value="" style="html=1;points=[];perimeter=orthogonalPerimeter;" vertex="1" parent="4">
                    <mxGeometry x="45" y="80" width="10" height="160" as="geometry"/>
                </mxCell>
                <mxCell id="2" value=":Client 1" style="shape=umlLifeline;perimeter=lifelinePerimeter;whiteSpace=wrap;html=1;container=1;collapsible=0;recursiveResize=0;outlineConnect=0;" vertex="1" parent="1">
                    <mxGeometry x="50" y="40" width="100" height="290" as="geometry"/>
                </mxCell>
                <mxCell id="6" value="" style="html=1;points=[];perimeter=orthogonalPerimeter;" vertex="1" parent="2">
                    <mxGeometry x="45" y="80" width="10" height="160" as="geometry"/>
                </mxCell>
                <mxCell id="7" value="request" style="html=1;verticalAlign=bottom;endArrow=block;" edge="1" parent="2">
                    <mxGeometry x="-0.3333" width="80" relative="1" as="geometry">
                        <mxPoint x="60" y="80" as="sourcePoint"/>
                        <mxPoint x="360" y="80" as="targetPoint"/>
                        <mxPoint as="offset"/>
                    </mxGeometry>
                </mxCell>
                <mxCell id="9" value="response" style="html=1;verticalAlign=bottom;endArrow=open;dashed=1;endSize=8;" edge="1" parent="2">
                    <mxGeometry x="-0.4" relative="1" as="geometry">
                        <mxPoint x="360" y="240" as="sourcePoint"/>
                        <mxPoint x="60" y="240" as="targetPoint"/>
                        <mxPoint as="offset"/>
                    </mxGeometry>
                </mxCell>
                <mxCell id="3" value=":Client 2" style="shape=umlLifeline;perimeter=lifelinePerimeter;whiteSpace=wrap;html=1;container=1;collapsible=0;recursiveResize=0;outlineConnect=0;" vertex="1" parent="1">
                    <mxGeometry x="210" y="40" width="100" height="290" as="geometry"/>
                </mxCell>
                <mxCell id="10" value="" style="html=1;points=[];perimeter=orthogonalPerimeter;" vertex="1" parent="3">
                    <mxGeometry x="45" y="120" width="10" height="160" as="geometry"/>
                </mxCell>
                <mxCell id="11" value="request" style="html=1;verticalAlign=bottom;endArrow=block;" edge="1" parent="3">
                    <mxGeometry x="-0.1538" width="80" relative="1" as="geometry">
                        <mxPoint x="60" y="120" as="sourcePoint"/>
                        <mxPoint x="320" y="120" as="targetPoint"/>
                        <mxPoint as="offset"/>
                    </mxGeometry>
                </mxCell>
                <mxCell id="5" value=":Async Operation" style="shape=umlLifeline;perimeter=lifelinePerimeter;whiteSpace=wrap;html=1;container=1;collapsible=0;recursiveResize=0;outlineConnect=0;" vertex="1" parent="1">
                    <mxGeometry x="490" y="40" width="100" height="290" as="geometry"/>
                </mxCell>
                <mxCell id="12" value="" style="html=1;points=[];perimeter=orthogonalPerimeter;" vertex="1" parent="5">
                    <mxGeometry x="45" y="120" width="10" height="160" as="geometry"/>
                </mxCell>
                <mxCell id="13" value="response" style="html=1;verticalAlign=bottom;endArrow=open;dashed=1;endSize=8;" edge="1" parent="5">
                    <mxGeometry x="-0.4" relative="1" as="geometry">
                        <mxPoint x="45" y="279" as="sourcePoint"/>
                        <mxPoint x="-220" y="279" as="targetPoint"/>
                        <mxPoint as="offset"/>
                    </mxGeometry>
                </mxCell>
            </root>
        </mxGraphModel>
    </diagram>
    <diagram id="aLx16bdld6h2jcHXMjXZ" name="Async Request Batching">
        <mxGraphModel dx="1540" dy="632" grid="1" gridSize="10" guides="1" tooltips="1" connect="1" arrows="1" fold="1" page="1" pageScale="1" pageWidth="850" pageHeight="1100" math="0" shadow="0">
            <root>
                <mxCell id="0"/>
                <mxCell id="1" parent="0"/>
                <mxCell id="X95bDO3Uvi4sRQ3A1I8o-1" value=":Client 1" style="shape=umlLifeline;perimeter=lifelinePerimeter;whiteSpace=wrap;html=1;container=1;collapsible=0;recursiveResize=0;outlineConnect=0;" vertex="1" parent="1">
                    <mxGeometry x="50" y="40" width="100" height="300" as="geometry"/>
                </mxCell>
                <mxCell id="X95bDO3Uvi4sRQ3A1I8o-2" value="" style="html=1;points=[];perimeter=orthogonalPerimeter;" vertex="1" parent="X95bDO3Uvi4sRQ3A1I8o-1">
                    <mxGeometry x="45" y="80" width="10" height="200" as="geometry"/>
                </mxCell>
                <mxCell id="X95bDO3Uvi4sRQ3A1I8o-3" value="request" style="html=1;verticalAlign=bottom;endArrow=block;" edge="1" parent="X95bDO3Uvi4sRQ3A1I8o-1">
                    <mxGeometry x="-0.3333" width="80" relative="1" as="geometry">
                        <mxPoint x="60" y="80" as="sourcePoint"/>
                        <mxPoint x="360" y="80" as="targetPoint"/>
                        <mxPoint as="offset"/>
                    </mxGeometry>
                </mxCell>
                <mxCell id="X95bDO3Uvi4sRQ3A1I8o-5" value=":Client 2" style="shape=umlLifeline;perimeter=lifelinePerimeter;whiteSpace=wrap;html=1;container=1;collapsible=0;recursiveResize=0;outlineConnect=0;" vertex="1" parent="1">
                    <mxGeometry x="210" y="40" width="100" height="300" as="geometry"/>
                </mxCell>
                <mxCell id="X95bDO3Uvi4sRQ3A1I8o-6" value="" style="html=1;points=[];perimeter=orthogonalPerimeter;" vertex="1" parent="X95bDO3Uvi4sRQ3A1I8o-5">
                    <mxGeometry x="45" y="120" width="10" height="170" as="geometry"/>
                </mxCell>
                <mxCell id="X95bDO3Uvi4sRQ3A1I8o-7" value="request" style="html=1;verticalAlign=bottom;endArrow=block;" edge="1" parent="X95bDO3Uvi4sRQ3A1I8o-5">
                    <mxGeometry x="-0.1538" width="80" relative="1" as="geometry">
                        <mxPoint x="60" y="120" as="sourcePoint"/>
                        <mxPoint x="200" y="120" as="targetPoint"/>
                        <mxPoint as="offset"/>
                    </mxGeometry>
                </mxCell>
                <mxCell id="IzN-LJYcdpAd0HwskOS1-1" value=":Async Operation" style="shape=umlLifeline;perimeter=lifelinePerimeter;whiteSpace=wrap;html=1;container=1;collapsible=0;recursiveResize=0;outlineConnect=0;" vertex="1" parent="1">
                    <mxGeometry x="370" y="40" width="100" height="300" as="geometry"/>
                </mxCell>
                <mxCell id="IzN-LJYcdpAd0HwskOS1-2" value="" style="html=1;points=[];perimeter=orthogonalPerimeter;" vertex="1" parent="IzN-LJYcdpAd0HwskOS1-1">
                    <mxGeometry x="45" y="80" width="10" height="200" as="geometry"/>
                </mxCell>
                <mxCell id="X95bDO3Uvi4sRQ3A1I8o-4" value="response" style="html=1;verticalAlign=bottom;endArrow=open;dashed=1;endSize=8;" edge="1" parent="1">
                    <mxGeometry x="-0.4" relative="1" as="geometry">
                        <mxPoint x="410" y="320" as="sourcePoint"/>
                        <mxPoint x="110" y="320" as="targetPoint"/>
                        <mxPoint as="offset"/>
                    </mxGeometry>
                </mxCell>
                <mxCell id="IzN-LJYcdpAd0HwskOS1-4" value="" style="html=1;verticalAlign=bottom;endArrow=open;dashed=1;endSize=8;" edge="1" parent="1">
                    <mxGeometry x="-0.4" relative="1" as="geometry">
                        <mxPoint x="410" y="330" as="sourcePoint"/>
                        <mxPoint x="270" y="330" as="targetPoint"/>
                        <mxPoint as="offset"/>
                    </mxGeometry>
                </mxCell>
            </root>
        </mxGraphModel>
    </diagram>
</mxfile>